<?xml version="1.0" standalone="no"?>
<!DOCTYPE svg PUBLIC "-//W3C//DTD SVG 1.1//EN" "http://www.w3.org/Graphics/SVG/1.1/DTD/svg11.dtd">
<!--Generator: Xara Designer (www.xara.com), SVG filter version: 6.6.0.0-->
<svg fill="none" fill-rule="evenodd" stroke="black" stroke-width="0.501" stroke-linejoin="bevel" stroke-miterlimit="10" font-family="Times New Roman" font-size="16" style="font-variant-ligatures:none" xmlns:xlink="http://www.w3.org/1999/xlink" xmlns="http://www.w3.org/2000/svg" version="1.1" overflow="visible"  height="66px" viewBox="0.002 -144.08 479.999 144.16">
 <defs>
  <linearGradient id="LinearGradient" gradientUnits="userSpaceOnUse" x1="0" y1="0" x2="0" y2="-128.483" gradientTransform="translate(52.885 137.616)">
   <stop offset="0" stop-color="#cc0099"/>
   <stop offset="1" stop-color="#660066"/>
  </linearGradient>
  <linearGradient id="LinearGradient_1" gradientUnits="userSpaceOnUse" x1="0" y1="0" x2="0" y2="-128.483" gradientTransform="translate(109.817 137.616)">
   <stop offset="0" stop-color="#cc0099"/>
   <stop offset="1" stop-color="#660066"/>
  </linearGradient>
 </defs>
 <g id="Page background" transform="scale(1 -1)"/>
 <g id="MouseOff" transform="scale(1 -1)">
  <g id="Group" stroke-linejoin="miter" stroke="none" stroke-width="0.962">
   <mask id="TranspMask">
    <rect x="-10%" y="-10%" width="120%" height="120%" fill="#ffffff" stroke="none"/>
   </mask>
   <g id="Group_1" mask="url(#TranspMask)">
    <path d="M 81.382,62.539 L 69.78,69.237 L 58.944,75.494 L 83.073,117.287 L 90.297,104.775 L 75.366,78.914 L 78.547,77.078 L 86.968,72.216 L 98.031,91.377 L 105.766,104.775 L 105.766,104.775 L 98.031,118.171 L 90.807,130.683 L 85.973,139.056 L 83.073,144.08 L 75.338,130.683 L 47.342,82.191 L 40.643,70.589 L 52.245,63.891 L 63.081,57.635 L 37.654,13.594 L 23.206,13.594 L 43.757,49.189 L 32.155,55.887 L 16.655,29.04 L 7.737,13.594 L 0.002,0.197 L 0.002,0.197 L 0.002,0.197 L 15.471,0.197 L 29.919,0.197 L 45.389,0.197 L 45.389,0.197 L 53.124,13.594 L 74.683,50.937 L 81.382,62.539 Z" marker-start="none" marker-end="none" fill="url(#LinearGradient)"/>
    <path d="M 143.73,39.019 L 135.55,53.187 L 127.816,66.583 L 117.551,84.362 L 117.442,84.551 L 109.817,97.758 L 102.082,84.362 L 87.457,59.031 L 80.758,47.429 L 55.083,2.956 L 53.489,0.197 L 53.489,0.197 L 55.083,0.197 L 55.083,0.197 L 68.958,0.197 L 84.428,26.99 L 98.729,26.99 L 106.464,40.388 L 92.163,40.388 L 109.817,70.965 L 120.081,53.187 L 89.488,0.197 L 104.957,0.197 L 112.17,12.692 L 123.134,12.692 L 130.869,26.088 L 119.905,26.088 L 127.815,39.789 L 142.94,13.594 L 131.1,13.594 L 123.366,0.197 L 123.365,0.197 L 150.675,0.197 L 152.673,0.197 L 152.673,0.197 L 166.144,0.197 L 143.73,39.019 Z" marker-start="none" marker-end="none" fill="url(#LinearGradient_1)"/>
   </g>
   <mask id="TranspMask_1">
    <rect x="-10%" y="-10%" width="120%" height="120%" fill="#ffffff" stroke="none"/>
   </mask>
   <g id="Group_2" fill="#660066" mask="url(#TranspMask_1)">
    <path d="M 225.54,116.272 L 225.54,127.748 C 222.155,124.069 218.513,121.128 214.616,118.92 C 210.716,116.713 207.737,115.169 205.678,114.286 C 205.678,115.462 204.72,116.713 202.809,118.037 C 206.782,119.066 210.313,120.538 213.403,122.452 C 216.492,124.362 218.92,126.203 220.685,127.969 L 211.857,127.969 C 209.354,127.969 206.782,127.894 204.133,127.748 L 204.133,131.28 C 206.782,131.131 209.354,131.059 211.857,131.059 L 225.54,131.059 L 225.54,136.797 C 222.744,136.5 217.52,136.059 209.872,135.473 C 209.43,136.797 208.768,138.121 207.886,139.445 C 214.799,139.445 221.569,139.886 228.189,140.769 C 234.81,141.652 239.369,142.607 241.872,143.638 C 242.755,142.166 244.003,140.621 245.624,139.004 C 243.12,138.856 240.621,138.634 238.12,138.341 C 235.616,138.045 232.675,137.679 229.292,137.238 L 229.292,131.059 L 243.858,131.059 C 246.066,131.059 248.565,131.131 251.362,131.28 L 251.362,127.748 C 248.713,127.894 246.21,127.969 243.858,127.969 L 234.589,127.969 C 236.354,125.762 238.707,123.665 241.651,121.679 C 244.592,119.693 248.345,118.11 252.907,116.934 C 251.286,115.755 250.183,114.286 249.597,112.52 C 247.39,113.403 245.328,114.359 243.417,115.389 C 243.12,112.74 242.975,109.062 242.975,104.355 C 242.975,99.351 243.048,95.306 243.196,92.216 L 239.003,92.216 L 239.003,95.527 L 215.83,95.527 L 215.83,91.996 L 212.079,91.996 L 212.079,103.913 C 212.079,108.913 212.003,113.034 211.857,116.272 L 225.54,116.272 M 239.003,107.445 L 239.003,112.962 L 215.83,112.962 L 215.83,107.445 L 239.003,107.445 M 239.003,98.837 L 239.003,104.355 L 215.83,104.355 L 215.83,98.837 L 239.003,98.837 M 240.107,117.596 C 236.576,120.096 233.044,123.555 229.513,127.969 L 229.292,127.969 L 229.292,116.272 L 242.093,116.272 L 240.107,117.596 Z" marker-start="none" marker-end="none"/>
    <path d="M 258.865,124.217 C 259.749,125.099 260.555,126.203 261.293,127.528 C 262.617,126.645 264.014,125.762 265.486,124.879 C 266.955,123.997 268.355,123.038 269.679,122.01 C 268.797,120.831 267.914,119.582 267.031,118.258 C 265.118,120.169 262.397,122.155 258.865,124.217 M 266.921,101.265 C 265.669,97.879 264.456,94.72 263.279,91.775 C 261.807,92.658 260.335,93.468 258.865,94.203 C 259.893,95.823 261.107,98.175 262.507,101.265 C 263.903,104.355 265.19,107.958 266.369,112.078 C 267.397,110.754 268.649,109.724 270.121,108.99 C 269.238,107.224 268.17,104.648 266.921,101.265 M 261.073,138.121 C 261.955,139.004 262.762,140.031 263.5,141.21 C 264.969,140.472 267.693,138.707 271.666,135.913 C 270.783,134.883 269.901,133.707 269.017,132.383 C 266.955,134.441 264.306,136.355 261.073,138.121 M 303.777,93.54 C 302.967,92.806 301.901,92.438 300.577,92.438 L 284.246,92.438 C 280.714,92.438 278.949,93.91 278.949,96.851 L 278.949,111.638 C 277.183,109.872 275.196,108.251 272.99,106.783 C 272.548,107.81 271.59,108.99 270.121,110.314 C 272.031,111.196 274.094,112.593 276.3,114.506 C 278.507,116.417 280.197,118.7 281.376,121.348 L 279.831,121.348 C 276.887,121.348 274.166,121.272 271.666,121.128 L 271.666,124.659 C 274.018,124.51 276.742,124.437 279.831,124.437 L 281.597,124.437 L 281.597,131.941 L 279.611,131.941 C 278.138,131.941 276.3,131.865 274.094,131.721 L 274.094,135.251 C 276.593,135.103 278.652,135.031 280.273,135.031 L 281.597,135.031 C 281.597,137.824 281.521,140.252 281.376,142.314 L 285.57,142.314 C 285.421,140.4 285.349,137.972 285.349,135.031 L 294.838,135.031 C 294.838,138.121 294.763,140.548 294.618,142.314 L 298.811,142.314 C 298.663,140.4 298.591,137.972 298.591,135.031 L 300.577,135.031 C 302.636,135.031 304.842,135.103 307.197,135.251 L 307.197,131.721 C 304.99,131.865 302.856,131.941 300.797,131.941 L 298.591,131.941 L 298.591,124.437 L 302.562,124.437 C 304.328,124.437 306.387,124.51 308.743,124.659 L 308.743,121.128 C 306.387,121.272 304.401,121.348 302.784,121.348 L 298.149,121.348 C 300.501,116.786 304.77,113.182 310.949,110.534 C 309.77,109.796 308.667,108.62 307.639,107.003 C 304.401,108.913 301.824,110.828 299.915,112.74 L 299.915,107.003 C 299.915,105.823 299.987,104.355 300.135,102.589 L 282.921,102.589 L 282.921,98.175 C 282.921,96.559 283.876,95.747 285.79,95.747 L 298.149,95.747 C 299.031,95.747 299.766,95.969 300.356,96.409 C 300.942,96.851 301.532,98.247 302.122,100.603 C 303.298,99.72 304.77,98.982 306.535,98.396 C 305.504,95.896 304.583,94.278 303.777,93.54 M 299.031,113.844 C 297.266,115.755 295.721,118.258 294.397,121.348 L 285.57,121.348 C 284.39,118.552 282.846,116.051 280.935,113.844 L 299.031,113.844 M 295.942,105.899 L 295.942,110.534 L 282.921,110.534 L 282.921,105.899 L 295.942,105.899 M 294.838,124.437 L 294.838,131.941 L 285.349,131.941 L 285.349,124.437 L 294.838,124.437 Z" marker-start="none" marker-end="none"/>
    <path d="M 332.136,129.734 C 325.809,127.379 321.174,125.541 318.232,124.217 C 317.349,125.541 316.319,126.717 315.142,127.748 C 317.494,128.482 319.96,129.255 322.535,130.065 C 325.108,130.873 327.867,131.941 330.812,133.265 L 332.136,129.734 M 318.232,139.445 L 320.439,142.535 C 324.263,141.355 327.867,140.18 331.253,139.004 C 330.222,137.972 329.267,136.797 328.384,135.473 C 325.294,137.09 321.908,138.414 318.232,139.445 M 331.032,95.196 C 327.501,93.799 324.263,92.586 321.322,91.554 C 320.584,93.027 319.777,94.278 318.894,95.306 C 320.363,95.602 322.646,96.3 325.735,97.403 C 328.825,98.507 331.694,99.866 334.343,101.486 C 334.929,100.306 335.811,98.982 336.991,97.513 C 336.549,97.365 334.563,96.596 331.032,95.196 M 350.012,132.383 C 351.778,131.203 354.095,130.028 356.964,128.852 C 359.833,127.672 362.737,126.717 365.681,125.983 C 364.357,124.951 363.475,123.848 363.033,122.672 C 357.881,124.437 352.953,126.79 348.246,129.734 C 347.508,128.704 346.111,127.528 344.053,126.203 C 342.14,124.879 340.302,123.848 338.536,123.114 L 359.281,123.114 C 359.133,121.2 359.06,117.669 359.06,112.52 C 359.06,107.517 359.133,104.059 359.281,102.148 L 323.308,102.148 C 323.453,103.913 323.529,107.369 323.529,112.52 C 323.529,117.669 323.453,121.2 323.308,123.114 L 337.653,123.114 C 336.474,123.997 335.005,124.879 333.239,125.762 C 337.653,127.086 340.853,128.482 342.839,129.956 C 344.826,131.424 346.185,133.338 346.923,135.693 L 351.116,135.031 C 350.819,134.441 350.454,133.559 350.012,132.383 M 327.943,120.024 L 327.943,116.934 L 354.647,116.934 L 354.647,120.024 L 327.943,120.024 M 327.943,114.065 L 327.943,111.196 L 354.647,111.196 L 354.647,114.065 L 327.943,114.065 M 327.943,108.327 L 327.943,105.237 L 354.647,105.237 L 354.647,108.327 L 327.943,108.327 M 336.991,132.603 C 335.519,133.338 334.122,134.001 332.798,134.589 C 334.267,135.473 335.887,136.611 337.653,138.011 C 339.419,139.407 341.036,141.355 342.508,143.859 C 343.391,143.269 345.229,142.535 348.026,141.652 C 346.405,140.769 345.009,139.81 343.833,138.783 L 366.343,138.783 C 365.019,135.545 364.209,133.117 363.915,131.5 C 362.002,132.235 360.457,132.676 359.281,132.825 C 359.722,133.851 360.236,134.883 360.826,135.913 L 340.742,135.913 C 339.564,134.883 338.315,133.779 336.991,132.603 M 347.143,97.955 C 348.026,99.279 348.832,100.454 349.57,101.486 C 352.512,100.162 357.074,98.175 363.253,95.527 C 361.633,94.058 360.678,92.734 360.384,91.554 C 355.674,94.058 351.26,96.189 347.143,97.955 Z" marker-start="none" marker-end="none"/>
    <path d="M 383.337,122.893 C 382.454,122.01 381.571,120.831 380.688,119.362 C 378.04,122.155 375.023,124.437 371.64,126.203 C 372.375,127.232 373.185,128.334 374.067,129.514 C 377.45,127.452 380.54,125.245 383.337,122.893 M 381.24,101.595 C 379.695,97.696 378.554,94.72 377.82,92.658 C 376.347,93.689 374.581,94.499 372.523,95.085 C 373.991,96.851 375.685,99.683 377.599,103.582 C 379.509,107.479 380.982,110.828 382.013,113.624 C 383.041,112.444 384.219,111.49 385.544,110.754 C 384.219,108.548 382.785,105.492 381.24,101.595 M 386.426,136.135 C 385.395,135.251 384.441,134.148 383.557,132.825 C 380.909,135.766 378.112,138.194 375.171,140.106 C 376.199,140.693 377.157,141.576 378.04,142.755 C 380.688,140.99 383.481,138.783 386.426,136.135 M 401.655,91.775 C 401.799,94.423 401.875,96.337 401.875,97.513 L 401.875,112.078 C 399.813,107.958 397.534,104.427 395.033,101.486 C 392.531,98.541 390.251,96.189 388.192,94.423 C 387.309,95.455 385.985,96.409 384.219,97.293 C 386.868,98.909 389.516,101.265 392.165,104.355 C 394.813,107.445 396.651,110.458 397.682,113.403 C 394.003,113.403 390.765,113.327 387.972,113.182 L 387.972,117.155 C 390.323,117.007 394.958,116.934 401.875,116.934 C 401.875,119.582 401.799,122.01 401.655,124.217 L 406.289,124.217 C 406.14,122.01 406.068,119.582 406.068,116.934 C 413.275,116.934 418.648,117.007 422.179,117.155 L 422.179,113.182 C 419.824,113.327 415.63,113.403 409.599,113.403 C 410.627,110.458 412.393,107.627 414.896,104.906 C 417.396,102.182 420.193,100.234 423.283,99.058 C 421.517,98.32 420.337,97.147 419.751,95.527 C 416.662,97.293 413.937,99.534 411.585,102.257 C 409.23,104.979 407.392,108.472 406.068,112.74 L 406.068,97.513 C 406.068,96.631 406.213,94.72 406.51,91.775 L 401.655,91.775 M 397.462,126.534 C 395.696,124.548 393.633,122.452 391.282,120.244 C 390.251,121.272 388.926,122.155 387.309,122.893 C 389.516,124.217 391.647,125.945 393.709,128.079 C 395.768,130.211 397.164,131.865 397.902,133.045 C 398.93,132.162 400.254,131.28 401.875,130.396 C 400.696,129.806 399.226,128.521 397.462,126.534 M 420.855,135.251 C 420.855,133.631 420.927,131.941 421.075,130.176 L 416.662,130.176 L 416.662,136.575 L 391.723,136.575 L 391.723,129.514 L 387.53,129.514 C 387.674,131.721 387.75,133.559 387.75,135.031 C 387.75,136.5 387.674,138.194 387.53,140.106 L 421.075,140.106 C 420.927,138.634 420.855,137.017 420.855,135.251 M 419.531,123.555 C 418.058,122.672 416.882,121.641 416,120.466 C 412.909,124.731 409.82,128.114 406.73,130.618 C 407.906,131.5 409.01,132.383 410.041,133.265 C 412.834,130.762 416,127.528 419.531,123.555 Z" marker-start="none" marker-end="none"/>
    <path d="M 230.617,81.005 C 231.645,79.681 233.079,78.467 234.92,77.363 C 236.758,76.261 238.707,75.34 240.769,74.605 C 242.827,73.868 244.997,73.281 247.279,72.839 C 249.558,72.398 251.803,72.102 254.01,71.957 C 252.979,70.633 252.245,69.088 251.803,67.322 C 249.007,67.909 246.469,68.536 244.189,69.198 C 241.906,69.86 239.886,70.633 238.12,71.515 C 236.354,72.398 234.589,73.463 232.823,74.715 C 231.058,75.963 229.513,77.546 228.189,79.461 C 227.01,78.429 225.464,77.326 223.555,76.15 C 221.641,74.97 219.582,73.832 217.375,72.729 C 215.168,71.626 212.85,70.633 210.423,69.749 C 207.995,68.867 205.602,68.057 203.251,67.322 C 202.661,69.088 202.071,70.633 201.485,71.957 C 204.278,72.398 207.037,73.022 209.761,73.832 C 212.482,74.639 215.02,75.708 217.375,77.033 C 219.727,78.357 221.789,79.681 223.555,81.005 C 225.32,82.33 226.496,83.578 227.086,84.756 L 231.721,82.55 C 231.279,82.109 230.909,81.591 230.617,81.005 M 246.728,62.245 L 246.728,57.832 C 246.728,56.802 246.8,55.184 246.948,52.977 L 207.223,52.977 C 207.368,55.036 207.444,56.802 207.444,58.274 L 207.444,62.245 C 207.444,63.57 207.368,65.188 207.223,67.102 L 246.948,67.102 C 246.8,65.188 246.728,63.57 246.728,62.245 M 224.879,56.066 L 224.879,64.011 L 211.195,64.011 L 211.195,56.066 L 224.879,56.066 M 211.417,44.811 C 211.417,46.28 211.341,48.046 211.195,50.108 L 242.755,50.108 C 242.607,48.487 242.534,46.942 242.534,45.473 L 242.534,39.073 C 242.534,36.573 242.607,34.367 242.755,32.453 L 238.562,32.453 L 238.562,34.218 L 215.389,34.218 L 215.389,32.011 L 211.195,32.011 C 211.341,33.631 211.417,36.06 211.417,39.294 L 211.417,44.811 M 221.569,58.274 C 219.947,57.684 218.772,57.17 218.037,56.729 C 217.299,58.053 216.344,59.819 215.168,62.025 C 216.492,62.612 217.668,63.129 218.699,63.57 C 219.285,62.391 220.244,60.625 221.569,58.274 M 238.562,43.707 L 238.562,47.018 L 215.389,47.018 L 215.389,43.707 L 238.562,43.707 M 238.562,37.308 L 238.562,40.618 L 215.389,40.618 L 215.389,37.308 L 238.562,37.308 M 229.955,72.839 C 231.131,72.839 232.675,72.984 234.589,73.281 L 234.589,69.529 C 232.675,69.673 231.131,69.749 229.955,69.749 L 223.996,69.749 C 222.817,69.749 221.199,69.673 219.14,69.529 L 219.14,73.281 C 220.758,72.984 222.231,72.839 223.555,72.839 L 229.955,72.839 M 242.975,56.066 L 242.975,64.011 L 228.63,64.011 L 228.63,56.066 L 242.975,56.066 M 237.016,59.046 C 236.576,58.384 235.986,57.536 235.251,56.508 C 234.22,57.094 232.896,57.536 231.279,57.832 C 232.161,58.715 232.896,59.56 233.486,60.37 C 234.072,61.177 234.589,61.949 235.03,62.687 C 236.058,62.539 237.31,62.098 238.782,61.363 C 238.044,60.481 237.458,59.708 237.016,59.046 Z" marker-start="none" marker-end="none"/>
    <path d="M 280.273,71.515 C 278.652,71.66 275.048,71.736 269.459,71.736 C 264.014,71.736 260.555,71.66 259.086,71.515 L 259.086,75.708 C 260.997,75.412 264.604,75.268 269.901,75.268 C 275.196,75.268 278.652,75.34 280.273,75.488 L 280.273,71.515 M 278.287,42.825 C 278.287,38.852 278.359,35.984 278.507,34.218 L 273.872,34.218 L 273.872,37.75 L 264.824,37.75 L 264.824,33.998 L 260.189,33.998 C 260.335,37.676 260.411,40.691 260.411,43.045 C 260.411,45.546 260.335,48.708 260.189,52.535 L 278.507,52.535 C 278.359,50.18 278.287,46.942 278.287,42.825 M 278.507,63.57 C 277.035,63.715 274.094,63.791 269.679,63.791 C 265.41,63.791 262.321,63.715 260.411,63.57 L 260.411,67.542 C 262.176,67.395 265.266,67.322 269.679,67.322 C 274.094,67.322 277.035,67.395 278.507,67.542 L 278.507,63.57 M 278.287,56.288 C 276.962,56.432 274.166,56.508 269.901,56.508 C 265.78,56.508 262.69,56.432 260.631,56.288 L 260.631,60.261 C 262.397,60.111 265.41,60.039 269.679,60.039 C 274.094,60.039 276.962,60.111 278.287,60.261 L 278.287,56.288 M 273.872,41.28 L 273.872,49.004 L 264.824,49.004 L 264.824,41.28 L 273.872,41.28 M 273.652,78.357 C 272.031,77.767 270.487,77.105 269.017,76.37 C 268.427,78.136 267.397,80.343 265.928,82.992 C 267.397,83.433 268.797,84.019 270.121,84.756 C 271.59,82.402 272.769,80.267 273.652,78.357 M 280.273,65.998 C 283.656,65.85 287.777,65.777 292.632,65.777 L 292.632,72.839 C 292.632,76.664 292.556,80.267 292.411,83.654 L 297.487,83.654 C 297.339,80.564 297.266,76.957 297.266,72.839 L 297.266,65.777 C 303.149,65.777 307.639,65.85 310.728,65.998 L 310.728,61.805 C 307.491,61.949 303.004,62.025 297.266,62.025 L 297.266,42.825 C 297.266,38.263 297.339,34.66 297.487,32.011 L 292.411,32.011 C 292.556,35.101 292.632,38.777 292.632,43.045 L 292.632,62.025 C 286.597,62.025 282.48,61.949 280.273,61.805 L 280.273,65.998 Z" marker-start="none" marker-end="none"/>
    <path d="M 325.515,75.93 L 336.549,75.93 C 336.401,74.605 336.329,73.06 336.329,71.295 L 336.329,66.218 C 336.329,64.598 336.401,62.76 336.549,60.701 L 320.88,60.701 L 320.88,54.522 L 337.211,54.522 C 337.063,52.315 336.991,50.253 336.991,48.342 L 336.991,42.825 C 336.991,40.763 337.063,38.411 337.211,35.764 L 332.577,35.764 L 332.577,39.294 L 320.88,39.294 L 320.88,35.322 L 316.467,35.322 C 316.611,38.263 316.687,40.983 316.687,43.487 L 316.687,67.102 C 316.687,69.895 316.611,72.839 316.467,75.93 L 321.101,75.93 C 321.836,77.839 322.35,80.415 322.646,83.654 C 325.294,83.064 327.133,82.771 328.163,82.771 C 327.722,82.181 326.839,79.901 325.515,75.93 M 331.916,64.232 L 331.916,72.177 L 320.88,72.177 L 320.88,64.232 L 331.916,64.232 M 332.577,42.825 L 332.577,50.991 L 320.88,50.991 L 320.88,42.825 L 332.577,42.825 M 366.564,76.812 C 364.799,76.957 362.812,77.033 360.606,77.033 L 355.088,77.033 L 355.088,67.984 L 365.902,67.984 C 365.605,65.922 365.461,63.791 365.461,61.584 L 365.461,46.356 C 365.313,44.294 364.612,42.97 363.364,42.383 C 362.112,41.794 360.308,41.425 357.957,41.28 C 357.957,42.898 357.516,44.664 356.633,46.576 C 360.164,46.136 361.781,46.722 361.488,48.342 L 361.488,64.453 L 355.088,64.453 L 355.088,41.059 C 355.088,37.97 355.161,35.101 355.309,32.453 L 350.674,32.453 C 350.819,35.101 350.894,37.97 350.894,41.059 L 350.894,64.453 L 344.274,64.453 L 344.274,42.163 L 339.64,42.163 C 339.784,45.398 339.86,48.342 339.86,50.991 L 339.86,60.481 C 339.86,63.129 339.784,65.629 339.64,67.984 L 350.894,67.984 L 350.894,77.033 L 344.715,77.033 C 342.508,77.033 340.522,76.957 338.757,76.812 L 338.757,80.785 C 340.522,80.636 342.508,80.564 344.715,80.564 L 360.606,80.564 C 363.105,80.564 365.091,80.636 366.564,80.785 L 366.564,76.812 Z" marker-start="none" marker-end="none"/>
    <path d="M 377.82,65.777 C 374.729,65.777 372.523,65.702 371.198,65.556 L 371.198,69.529 C 372.523,69.381 374.729,69.308 377.82,69.308 L 377.82,76.591 C 377.82,79.384 377.744,81.667 377.599,83.433 L 382.233,83.433 C 382.085,81.812 382.013,79.533 382.013,76.591 L 382.013,69.308 C 385.395,69.308 387.75,69.381 389.074,69.529 L 389.074,65.556 C 387.602,65.702 385.247,65.777 382.013,65.777 L 382.013,41.28 C 382.013,38.042 382.085,35.397 382.233,33.335 L 377.599,33.335 C 377.744,35.249 377.82,37.898 377.82,41.28 L 377.82,65.777 M 385.323,55.626 C 386.94,55.477 389.074,55.404 391.723,55.404 C 391.723,56.729 391.647,58.198 391.503,59.819 C 393.119,59.522 394.885,59.229 396.799,58.936 C 396.209,57.905 395.916,56.729 395.916,55.404 L 404.523,55.404 C 404.375,52.902 404.227,50.07 404.082,46.908 C 403.933,43.743 403.785,41.059 403.641,38.852 C 403.493,36.646 402.903,35.211 401.875,34.549 C 400.844,33.887 398.786,33.411 395.696,33.115 C 395.547,35.028 395.033,36.646 394.151,37.97 C 396.061,37.826 397.313,37.75 397.902,37.75 C 398.637,37.75 399.151,38.263 399.448,39.294 L 400.33,52.095 L 395.696,52.095 C 395.399,49.739 395.106,47.901 394.813,46.576 C 394.516,45.253 394.113,43.818 393.599,42.274 C 393.082,40.728 392.348,39.146 391.392,37.529 C 390.434,35.911 389.22,34.294 387.75,32.673 C 386.572,33.705 385.247,34.587 383.779,35.322 C 386.426,37.529 388.303,39.99 389.405,42.715 C 390.509,45.435 391.206,48.563 391.503,52.095 C 388.854,52.095 386.792,51.945 385.323,51.653 L 385.323,55.626 M 414.896,66.55 C 415.482,67.357 416,70.043 416.441,74.605 L 406.73,74.605 C 406.289,71.809 405.075,69.161 403.088,66.66 C 401.103,64.156 397.682,61.949 392.827,60.039 C 392.089,62.098 391.061,63.643 389.737,64.674 C 394.003,65.85 397.02,67.212 398.786,68.757 C 400.551,70.302 401.727,72.249 402.317,74.605 L 398.344,74.605 C 396.282,74.605 394.223,74.53 392.165,74.384 L 392.165,78.136 C 394.223,77.988 396.282,77.915 398.344,77.915 L 402.979,77.915 C 403.123,79.533 403.199,81.519 403.199,83.874 C 404.965,83.578 406.654,83.284 408.276,82.992 C 407.686,81.371 407.316,79.681 407.172,77.915 L 421.517,77.915 C 421.075,73.943 420.668,70.633 420.303,67.984 C 419.934,65.336 419.272,63.57 418.317,62.687 C 417.358,61.805 414.455,60.995 409.599,60.261 C 409.303,62.319 408.789,64.011 408.054,65.336 C 412.027,65.336 414.306,65.739 414.896,66.55 M 408.607,41.39 C 409.71,43.963 410.407,47.46 410.703,51.873 C 409.23,51.873 407.686,51.725 406.068,51.433 L 406.068,55.404 C 407.978,55.256 409.523,55.184 410.703,55.184 C 410.703,57.094 410.627,58.715 410.482,60.039 C 411.951,59.743 413.644,59.522 415.558,59.377 C 415.262,57.905 415.117,56.508 415.117,55.184 L 423.724,55.184 C 423.575,50.033 423.465,45.915 423.392,42.825 C 423.317,39.735 423.134,37.567 422.841,36.315 C 422.545,35.066 421.883,34.218 420.855,33.777 C 419.824,33.335 417.838,32.969 414.896,32.673 C 414.896,34.145 414.306,35.839 413.131,37.75 C 415.338,37.604 416.806,37.567 417.544,37.639 C 418.279,37.715 418.72,38.114 418.868,38.852 C 419.013,43.118 419.089,47.46 419.089,51.873 L 414.896,51.873 C 414.896,50.108 414.71,48.342 414.344,46.576 C 413.975,44.811 413.496,43.008 412.909,41.17 C 412.32,39.328 411.62,37.715 410.813,36.315 C 410.003,34.918 409.082,33.483 408.054,32.011 C 407.172,32.894 405.772,33.853 403.861,34.88 C 405.92,36.646 407.503,38.815 408.607,41.39 Z" marker-start="none" marker-end="none"/>
    <path d="M 456.607,81.005 C 457.635,79.681 459.07,78.467 460.91,77.363 C 462.749,76.261 464.697,75.34 466.759,74.605 C 468.817,73.868 470.987,73.281 473.269,72.839 C 475.549,72.398 477.794,72.102 480.001,71.957 C 478.969,70.633 478.235,69.088 477.794,67.322 C 474.997,67.909 472.459,68.536 470.18,69.198 C 467.897,69.86 465.876,70.633 464.11,71.515 C 462.345,72.398 460.579,73.463 458.814,74.715 C 457.048,75.963 455.504,77.546 454.18,79.461 C 453,78.429 451.455,77.326 449.545,76.15 C 447.631,74.97 445.572,73.832 443.366,72.729 C 441.159,71.626 438.841,70.633 436.413,69.749 C 433.986,68.867 431.593,68.057 429.241,67.322 C 428.651,69.088 428.062,70.633 427.476,71.957 C 430.269,72.398 433.027,73.022 435.751,73.832 C 438.472,74.639 441.011,75.708 443.366,77.033 C 445.718,78.357 447.779,79.681 449.545,81.005 C 451.311,82.33 452.486,83.578 453.076,84.756 L 457.711,82.55 C 457.269,82.109 456.9,81.591 456.607,81.005 M 472.718,62.245 L 472.718,57.832 C 472.718,56.802 472.79,55.184 472.938,52.977 L 433.213,52.977 C 433.358,55.036 433.434,56.802 433.434,58.274 L 433.434,62.245 C 433.434,63.57 433.358,65.188 433.213,67.102 L 472.938,67.102 C 472.79,65.188 472.718,63.57 472.718,62.245 M 450.869,56.066 L 450.869,64.011 L 437.186,64.011 L 437.186,56.066 L 450.869,56.066 M 437.407,44.811 C 437.407,46.28 437.331,48.046 437.186,50.108 L 468.745,50.108 C 468.597,48.487 468.525,46.942 468.525,45.473 L 468.525,39.073 C 468.525,36.573 468.597,34.367 468.745,32.453 L 464.552,32.453 L 464.552,34.218 L 441.379,34.218 L 441.379,32.011 L 437.186,32.011 C 437.331,33.631 437.407,36.06 437.407,39.294 L 437.407,44.811 M 447.559,58.274 C 445.938,57.684 444.762,57.17 444.028,56.729 C 443.29,58.053 442.335,59.819 441.159,62.025 C 442.483,62.612 443.658,63.129 444.69,63.57 C 445.276,62.391 446.234,60.625 447.559,58.274 M 464.552,43.707 L 464.552,47.018 L 441.379,47.018 L 441.379,43.707 L 464.552,43.707 M 464.552,37.308 L 464.552,40.618 L 441.379,40.618 L 441.379,37.308 L 464.552,37.308 M 455.945,72.839 C 457.121,72.839 458.666,72.984 460.579,73.281 L 460.579,69.529 C 458.666,69.673 457.121,69.749 455.945,69.749 L 449.987,69.749 C 448.807,69.749 447.19,69.673 445.131,69.529 L 445.131,73.281 C 446.748,72.984 448.221,72.839 449.545,72.839 L 455.945,72.839 M 468.966,56.066 L 468.966,64.011 L 454.621,64.011 L 454.621,56.066 L 468.966,56.066 M 463.007,59.046 C 462.566,58.384 461.976,57.536 461.241,56.508 C 460.211,57.094 458.887,57.536 457.269,57.832 C 458.152,58.715 458.887,59.56 459.477,60.37 C 460.063,61.177 460.579,61.949 461.021,62.687 C 462.049,62.539 463.3,62.098 464.772,61.363 C 464.034,60.481 463.448,59.708 463.007,59.046 Z" marker-start="none" marker-end="none"/>
   </g>
   <mask id="TranspMask_2">
    <rect x="-10%" y="-10%" width="120%" height="120%" fill="#ffffff" stroke="none"/>
   </mask>
   <g id="Group_3" fill="#660066" mask="url(#TranspMask_2)">
    <path d="M 200.564,5.443 L 202.231,5.621 C 202.32,4.724 202.521,4.025 202.837,3.526 C 203.152,3.026 203.602,2.623 204.187,2.319 C 204.772,2.015 205.432,1.864 206.165,1.864 C 207.217,1.864 208.034,2.121 208.616,2.635 C 209.197,3.149 209.489,3.816 209.489,4.636 C 209.489,5.116 209.383,5.537 209.171,5.895 C 208.96,6.254 208.642,6.547 208.216,6.777 C 207.789,7.006 206.87,7.33 205.454,7.749 C 204.195,8.123 203.298,8.498 202.765,8.877 C 202.231,9.255 201.816,9.734 201.52,10.316 C 201.223,10.897 201.075,11.554 201.075,12.288 C 201.075,13.607 201.502,14.685 202.353,15.522 C 203.206,16.359 204.353,16.778 205.799,16.778 C 206.792,16.778 207.66,16.582 208.405,16.189 C 209.149,15.797 209.727,15.234 210.138,14.5 C 210.55,13.766 210.77,12.903 210.8,11.91 L 209.099,11.754 C 209.01,12.814 208.694,13.6 208.149,14.111 C 207.605,14.622 206.84,14.878 205.854,14.878 C 204.854,14.878 204.091,14.653 203.564,14.205 C 203.038,13.757 202.775,13.178 202.775,12.466 C 202.775,11.807 202.968,11.296 203.354,10.933 C 203.739,10.57 204.606,10.202 205.954,9.83 C 207.272,9.465 208.197,9.149 208.73,8.881 C 209.545,8.465 210.16,7.918 210.576,7.241 C 210.991,6.564 211.199,5.755 211.199,4.815 C 211.199,3.882 210.981,3.032 210.544,2.267 C 210.106,1.502 209.513,0.918 208.76,0.519 C 208.008,0.119 207.102,-0.08 206.043,-0.08 C 204.391,-0.08 203.074,0.415 202.092,1.408 C 201.11,2.401 200.601,3.746 200.564,5.443 Z" marker-start="none" marker-end="none"/>
    <path d="M 213.556,0.197 L 213.556,16.489 L 216.213,16.489 L 219.384,4.954 L 220.018,2.542 C 220.173,3.142 220.411,4.013 220.731,5.154 L 223.935,16.489 L 226.314,16.489 L 226.314,0.197 L 224.613,0.197 L 224.613,13.823 L 220.717,0.197 L 219.13,0.197 L 215.256,14.057 L 215.256,0.197 L 213.556,0.197 Z" marker-start="none" marker-end="none"/>
    <path d="M 227.692,0.197 L 232.844,16.489 L 234.734,16.489 L 240.206,0.197 L 238.182,0.197 L 236.629,5.132 L 231.009,5.132 L 229.556,0.197 L 227.692,0.197 M 231.525,6.887 L 236.076,6.887 L 234.687,11.399 C 234.258,12.785 233.943,13.911 233.743,14.778 C 233.571,13.734 233.326,12.695 233.011,11.666 L 231.525,6.887 Z" marker-start="none" marker-end="none"/>
    <path d="M 241.594,0.197 L 241.594,16.489 L 247.518,16.489 C 248.755,16.489 249.668,16.337 250.258,16.034 C 250.847,15.73 251.33,15.225 251.708,14.518 C 252.086,13.811 252.274,12.991 252.274,12.058 C 252.274,10.829 251.954,9.833 251.313,9.07 C 250.672,8.307 249.741,7.822 248.518,7.615 C 249.015,7.317 249.393,7.015 249.652,6.71 C 250.178,6.087 250.641,5.395 251.041,4.632 L 253.375,0.197 L 251.152,0.197 L 249.371,3.585 C 248.68,4.911 248.159,5.802 247.808,6.262 C 247.456,6.723 247.115,7.033 246.786,7.193 C 246.457,7.352 245.996,7.431 245.405,7.431 L 243.362,7.431 L 243.362,0.197 L 241.594,0.197 M 243.362,9.299 L 247.162,9.299 C 247.992,9.299 248.622,9.399 249.052,9.599 C 249.481,9.799 249.822,10.114 250.074,10.544 C 250.326,10.973 250.452,11.474 250.452,12.044 C 250.452,12.867 250.212,13.512 249.73,13.983 C 249.247,14.453 248.533,14.689 247.585,14.689 L 243.362,14.689 L 243.362,9.299 Z" marker-start="none" marker-end="none"/>
    <path d="M 258.175,0.197 L 258.175,14.567 L 253.775,14.567 L 253.775,16.489 L 264.366,16.489 L 264.366,14.567 L 259.943,14.567 L 259.943,0.197 L 258.175,0.197 Z" marker-start="none" marker-end="none"/>
    <path d="M 268.533,0.197 L 273.686,16.489 L 275.575,16.489 L 281.047,0.197 L 279.025,0.197 L 277.47,5.132 L 271.85,5.132 L 270.398,0.197 L 268.533,0.197 M 272.367,6.887 L 276.918,6.887 L 275.529,11.399 C 275.099,12.785 274.785,13.911 274.584,14.778 C 274.412,13.734 274.168,12.695 273.853,11.666 L 272.367,6.887 Z" marker-start="none" marker-end="none"/>
    <path d="M 288.548,4.52 L 290.16,4.265 C 289.974,2.856 289.51,1.783 288.765,1.042 C 288.021,0.301 287.126,-0.07 286.081,-0.07 C 284.814,-0.07 283.771,0.451 282.953,1.492 C 282.135,2.532 281.725,4.072 281.725,6.109 C 281.725,8.162 282.137,9.701 282.964,10.727 C 283.79,11.753 284.852,12.266 286.148,12.266 C 287.148,12.266 287.991,11.955 288.676,11.332 C 289.361,10.711 289.8,9.777 289.994,8.532 L 288.404,8.243 C 288.248,9.039 287.978,9.635 287.593,10.029 C 287.207,10.425 286.744,10.621 286.204,10.621 C 285.396,10.621 284.728,10.264 284.197,9.549 C 283.668,8.834 283.403,7.699 283.403,6.142 C 283.403,4.534 283.657,3.372 284.165,2.653 C 284.672,1.935 285.322,1.575 286.115,1.575 C 286.737,1.575 287.269,1.814 287.709,2.291 C 288.15,2.77 288.43,3.512 288.548,4.52 Z" marker-start="none" marker-end="none"/>
    <path d="M 297.883,4.52 L 299.495,4.265 C 299.31,2.856 298.846,1.783 298.101,1.042 C 297.356,0.301 296.461,-0.07 295.416,-0.07 C 294.15,-0.07 293.107,0.451 292.288,1.492 C 291.47,2.532 291.061,4.072 291.061,6.109 C 291.061,8.162 291.473,9.701 292.299,10.727 C 293.125,11.753 294.187,12.266 295.484,12.266 C 296.483,12.266 297.326,11.955 298.011,11.332 C 298.696,10.711 299.136,9.777 299.329,8.532 L 297.739,8.243 C 297.584,9.039 297.313,9.635 296.928,10.029 C 296.543,10.425 296.079,10.621 295.539,10.621 C 294.731,10.621 294.063,10.264 293.532,9.549 C 293.003,8.834 292.739,7.699 292.739,6.142 C 292.739,4.534 292.992,3.372 293.5,2.653 C 294.007,1.935 294.657,1.575 295.45,1.575 C 296.073,1.575 296.604,1.814 297.044,2.291 C 297.485,2.77 297.765,3.512 297.883,4.52 Z" marker-start="none" marker-end="none"/>
    <path d="M 300.262,6.098 C 300.262,8.136 300.69,9.673 301.545,10.711 C 302.402,11.748 303.485,12.266 304.797,12.266 C 306.086,12.266 307.164,11.748 308.031,10.711 C 308.897,9.673 309.33,8.176 309.33,6.22 C 309.33,4.101 308.904,2.523 308.053,1.486 C 307.2,0.449 306.115,-0.07 304.797,-0.07 C 303.5,-0.07 302.42,0.451 301.557,1.492 C 300.694,2.532 300.262,4.069 300.262,6.098 M 301.94,6.104 C 301.94,4.576 302.218,3.438 302.774,2.694 C 303.329,1.948 304.018,1.575 304.841,1.575 C 305.612,1.575 306.273,1.952 306.825,2.704 C 307.376,3.458 307.652,4.59 307.652,6.104 C 307.652,7.624 307.374,8.757 306.819,9.503 C 306.263,10.249 305.574,10.621 304.752,10.621 C 303.974,10.621 303.311,10.247 302.763,9.497 C 302.214,8.748 301.94,7.617 301.94,6.104 Z" marker-start="none" marker-end="none"/>
    <path d="M 317.599,0.197 L 317.599,1.931 C 317.221,1.264 316.777,0.764 316.266,0.431 C 315.754,0.097 315.177,-0.07 314.532,-0.07 C 313.769,-0.07 313.117,0.136 312.576,0.547 C 312.035,0.958 311.673,1.478 311.492,2.109 C 311.311,2.738 311.22,3.597 311.22,4.687 L 311.22,12 L 312.854,12 L 312.854,5.454 C 312.854,4.238 312.915,3.426 313.037,3.014 C 313.159,2.603 313.385,2.273 313.715,2.025 C 314.044,1.777 314.42,1.653 314.843,1.653 C 315.628,1.653 316.272,1.975 316.777,2.62 C 317.206,3.176 317.421,4.194 317.421,5.676 L 317.421,12 L 319.066,12 L 319.066,0.197 L 317.599,0.197 Z" marker-start="none" marker-end="none"/>
    <path d="M 321.644,0.197 L 321.644,12 L 323.122,12 L 323.122,10.332 C 323.477,10.981 323.912,11.465 324.426,11.785 C 324.94,12.106 325.53,12.266 326.195,12.266 C 326.713,12.266 327.192,12.164 327.632,11.96 C 328.072,11.756 328.427,11.49 328.697,11.161 C 328.967,10.831 329.169,10.403 329.302,9.877 C 329.435,9.351 329.501,8.544 329.501,7.455 L 329.501,0.197 L 327.868,0.197 L 327.868,7.383 C 327.868,8.252 327.794,8.886 327.645,9.286 C 327.497,9.687 327.265,9.997 326.951,10.215 C 326.636,10.434 326.271,10.544 325.857,10.544 C 325.071,10.544 324.445,10.251 323.979,9.665 C 323.511,9.079 323.278,8.073 323.278,6.65 L 323.278,0.197 L 321.644,0.197 Z" marker-start="none" marker-end="none"/>
    <path d="M 335.669,1.986 L 335.891,0.219 C 335.44,0.101 335.032,0.042 334.669,0.042 C 334.099,0.042 333.64,0.155 333.291,0.381 C 332.943,0.606 332.704,0.916 332.575,1.308 C 332.445,1.701 332.38,2.483 332.38,3.653 L 332.38,10.444 L 331.179,10.444 L 331.179,12 L 332.38,12 L 332.38,14.922 L 334.014,16.123 L 334.014,12 L 335.669,12 L 335.669,10.444 L 334.014,10.444 L 334.014,3.542 C 334.014,2.905 334.061,2.494 334.158,2.309 C 334.299,2.042 334.561,1.909 334.947,1.909 C 335.132,1.909 335.373,1.935 335.669,1.986 Z" marker-start="none" marker-end="none"/>
    <path d="M 343.515,1.653 C 342.967,1.083 342.396,0.653 341.804,0.364 C 341.211,0.075 340.596,-0.07 339.959,-0.07 C 338.951,-0.07 338.148,0.234 337.547,0.841 C 336.948,1.449 336.647,2.268 336.647,3.298 C 336.647,3.979 336.788,4.583 337.07,5.11 C 337.351,5.635 337.737,6.046 338.225,6.342 C 338.714,6.64 339.455,6.858 340.448,6.998 C 341.782,7.194 342.759,7.428 343.382,7.699 L 343.393,8.21 C 343.393,9.017 343.249,9.584 342.959,9.91 C 342.552,10.384 341.926,10.621 341.081,10.621 C 340.318,10.621 339.748,10.463 339.37,10.147 C 338.992,9.83 338.714,9.236 338.536,8.365 L 336.926,8.632 C 337.155,9.899 337.619,10.821 338.32,11.399 C 339.02,11.977 340.022,12.266 341.326,12.266 C 342.341,12.266 343.137,12.075 343.716,11.694 C 344.293,11.312 344.659,10.839 344.81,10.277 C 344.962,9.714 345.038,8.891 345.038,7.81 L 345.038,5.142 C 345.038,3.275 345.073,2.099 345.143,1.614 C 345.214,1.128 345.352,0.657 345.56,0.197 L 343.848,0.197 C 343.678,0.605 343.567,1.09 343.515,1.653 M 343.382,6.12 C 342.782,5.824 341.889,5.573 340.704,5.365 C 340.015,5.246 339.533,5.111 339.259,4.959 C 338.985,4.808 338.772,4.593 338.62,4.314 C 338.468,4.037 338.392,3.716 338.392,3.353 C 338.392,2.79 338.566,2.34 338.914,2.003 C 339.263,1.666 339.744,1.498 340.36,1.498 C 340.945,1.498 341.476,1.649 341.954,1.953 C 342.432,2.257 342.789,2.662 343.027,3.17 C 343.263,3.677 343.382,4.416 343.382,5.387 L 343.382,6.12 Z" marker-start="none" marker-end="none"/>
    <path d="M 347.594,0.197 L 347.594,12 L 349.072,12 L 349.072,10.332 C 349.427,10.981 349.862,11.465 350.376,11.785 C 350.89,12.106 351.479,12.266 352.145,12.266 C 352.663,12.266 353.142,12.164 353.582,11.96 C 354.021,11.756 354.376,11.49 354.647,11.161 C 354.916,10.831 355.118,10.403 355.251,9.877 C 355.385,9.351 355.451,8.544 355.451,7.455 L 355.451,0.197 L 353.817,0.197 L 353.817,7.383 C 353.817,8.252 353.743,8.886 353.595,9.286 C 353.447,9.687 353.215,9.997 352.901,10.215 C 352.586,10.434 352.221,10.544 351.806,10.544 C 351.02,10.544 350.395,10.251 349.927,9.665 C 349.461,9.079 349.228,8.073 349.228,6.65 L 349.228,0.197 L 347.594,0.197 Z" marker-start="none" marker-end="none"/>
    <path d="M 361.619,1.986 L 361.841,0.219 C 361.39,0.101 360.982,0.042 360.619,0.042 C 360.048,0.042 359.589,0.155 359.24,0.381 C 358.893,0.606 358.653,0.916 358.524,1.308 C 358.395,1.701 358.329,2.483 358.329,3.653 L 358.329,10.444 L 357.129,10.444 L 357.129,12 L 358.329,12 L 358.329,14.922 L 359.963,16.123 L 359.963,12 L 361.619,12 L 361.619,10.444 L 359.963,10.444 L 359.963,3.542 C 359.963,2.905 360.011,2.494 360.108,2.309 C 360.249,2.042 360.511,1.909 360.897,1.909 C 361.082,1.909 361.322,1.935 361.619,1.986 Z" marker-start="none" marker-end="none"/>
    <path d="M 362.53,3.731 L 364.164,4.043 C 364.26,3.209 364.523,2.59 364.951,2.184 C 365.38,1.778 365.95,1.575 366.659,1.575 C 367.369,1.575 367.917,1.751 368.305,2.103 C 368.693,2.455 368.887,2.902 368.887,3.442 C 368.887,3.909 368.721,4.272 368.387,4.531 C 368.158,4.709 367.602,4.932 366.72,5.198 C 365.445,5.591 364.594,5.924 364.164,6.199 C 363.735,6.472 363.401,6.84 363.164,7.299 C 362.926,7.758 362.808,8.28 362.808,8.865 C 362.808,9.872 363.13,10.691 363.775,11.321 C 364.42,11.952 365.313,12.266 366.454,12.266 C 367.172,12.266 367.804,12.136 368.348,11.877 C 368.893,11.618 369.309,11.27 369.599,10.833 C 369.888,10.395 370.088,9.77 370.198,8.955 L 368.598,8.687 C 368.45,9.976 367.75,10.621 366.498,10.621 C 365.787,10.621 365.257,10.48 364.908,10.195 C 364.56,9.911 364.386,9.547 364.386,9.105 C 364.386,8.67 364.553,8.326 364.887,8.076 C 365.087,7.928 365.681,7.692 366.668,7.367 C 368.026,6.937 368.904,6.593 369.304,6.337 C 369.702,6.081 370.012,5.732 370.233,5.291 C 370.454,4.849 370.565,4.324 370.565,3.716 C 370.565,2.588 370.208,1.675 369.493,0.977 C 368.777,0.279 367.802,-0.07 366.564,-0.07 C 364.245,-0.07 362.9,1.198 362.53,3.731 Z" marker-start="none" marker-end="none"/>
    <path d="M 375.433,0.197 L 380.585,16.489 L 382.476,16.489 L 387.947,0.197 L 385.924,0.197 L 384.37,5.132 L 378.749,5.132 L 377.297,0.197 L 375.433,0.197 M 379.266,6.887 L 383.817,6.887 L 382.429,11.399 C 381.999,12.785 381.684,13.911 381.484,14.778 C 381.312,13.734 381.068,12.695 380.753,11.666 L 379.266,6.887 Z" marker-start="none" marker-end="none"/>
    <path d="M 388.48,3.731 L 390.114,4.043 C 390.21,3.209 390.472,2.59 390.901,2.184 C 391.33,1.778 391.899,1.575 392.608,1.575 C 393.318,1.575 393.867,1.751 394.255,2.103 C 394.642,2.455 394.837,2.902 394.837,3.442 C 394.837,3.909 394.67,4.272 394.337,4.531 C 394.108,4.709 393.551,4.932 392.67,5.198 C 391.395,5.591 390.544,5.924 390.114,6.199 C 389.684,6.472 389.351,6.84 389.114,7.299 C 388.876,7.758 388.758,8.28 388.758,8.865 C 388.758,9.872 389.08,10.691 389.725,11.321 C 390.369,11.952 391.262,12.266 392.404,12.266 C 393.121,12.266 393.753,12.136 394.298,11.877 C 394.843,11.618 395.259,11.27 395.548,10.833 C 395.838,10.395 396.038,9.77 396.148,8.955 L 394.548,8.687 C 394.4,9.976 393.7,10.621 392.448,10.621 C 391.737,10.621 391.207,10.48 390.858,10.195 C 390.51,9.911 390.336,9.547 390.336,9.105 C 390.336,8.67 390.503,8.326 390.837,8.076 C 391.037,7.928 391.631,7.692 392.618,7.367 C 393.976,6.937 394.854,6.593 395.252,6.337 C 395.652,6.081 395.962,5.732 396.183,5.291 C 396.404,4.849 396.515,4.324 396.515,3.716 C 396.515,2.588 396.158,1.675 395.443,0.977 C 394.727,0.279 393.752,-0.07 392.514,-0.07 C 390.195,-0.07 388.85,1.198 388.48,3.731 Z" marker-start="none" marker-end="none"/>
    <path d="M 397.816,3.731 L 399.449,4.043 C 399.545,3.209 399.807,2.59 400.237,2.184 C 400.665,1.778 401.234,1.575 401.943,1.575 C 402.654,1.575 403.202,1.751 403.59,2.103 C 403.978,2.455 404.172,2.902 404.172,3.442 C 404.172,3.909 404.005,4.272 403.672,4.531 C 403.443,4.709 402.886,4.932 402.005,5.198 C 400.731,5.591 399.879,5.924 399.449,6.199 C 399.019,6.472 398.686,6.84 398.449,7.299 C 398.211,7.758 398.093,8.28 398.093,8.865 C 398.093,9.872 398.415,10.691 399.06,11.321 C 399.704,11.952 400.597,12.266 401.739,12.266 C 402.457,12.266 403.088,12.136 403.633,11.877 C 404.178,11.618 404.594,11.27 404.884,10.833 C 405.173,10.395 405.373,9.77 405.483,8.955 L 403.883,8.687 C 403.735,9.976 403.035,10.621 401.783,10.621 C 401.072,10.621 400.542,10.48 400.193,10.195 C 399.845,9.911 399.672,9.547 399.672,9.105 C 399.672,8.67 399.838,8.326 400.172,8.076 C 400.372,7.928 400.966,7.692 401.954,7.367 C 403.312,6.937 404.189,6.593 404.588,6.337 C 404.987,6.081 405.297,5.732 405.518,5.291 C 405.739,4.849 405.851,4.324 405.851,3.716 C 405.851,2.588 405.493,1.675 404.778,0.977 C 404.063,0.279 403.087,-0.07 401.849,-0.07 C 399.53,-0.07 398.186,1.198 397.816,3.731 Z" marker-start="none" marker-end="none"/>
    <path d="M 407.161,6.098 C 407.161,8.136 407.589,9.673 408.445,10.711 C 409.301,11.748 410.385,12.266 411.696,12.266 C 412.985,12.266 414.063,11.748 414.93,10.711 C 415.797,9.673 416.23,8.176 416.23,6.22 C 416.23,4.101 415.805,2.523 414.952,1.486 C 414.101,0.449 413.014,-0.07 411.696,-0.07 C 410.399,-0.07 409.319,0.451 408.456,1.492 C 407.593,2.532 407.161,4.069 407.161,6.098 M 408.839,6.104 C 408.839,4.576 409.117,3.438 409.674,2.694 C 410.229,1.948 410.918,1.575 411.74,1.575 C 412.511,1.575 413.172,1.952 413.724,2.704 C 414.276,3.458 414.552,4.59 414.552,6.104 C 414.552,7.624 414.275,8.757 413.719,9.503 C 413.163,10.249 412.473,10.621 411.652,10.621 C 410.873,10.621 410.21,10.247 409.662,9.497 C 409.114,8.748 408.839,7.617 408.839,6.104 Z" marker-start="none" marker-end="none"/>
    <path d="M 424.499,4.52 L 426.11,4.265 C 425.925,2.856 425.46,1.783 424.715,1.042 C 423.97,0.301 423.076,-0.07 422.032,-0.07 C 420.765,-0.07 419.722,0.451 418.903,1.492 C 418.084,2.532 417.675,4.072 417.675,6.109 C 417.675,8.162 418.088,9.701 418.914,10.727 C 419.74,11.753 420.801,12.266 422.098,12.266 C 423.099,12.266 423.941,11.955 424.627,11.332 C 425.312,10.711 425.751,9.777 425.943,8.532 L 424.354,8.243 C 424.199,9.039 423.928,9.635 423.543,10.029 C 423.157,10.425 422.695,10.621 422.154,10.621 C 421.346,10.621 420.677,10.264 420.148,9.549 C 419.618,8.834 419.353,7.699 419.353,6.142 C 419.353,4.534 419.607,3.372 420.114,2.653 C 420.622,1.935 421.272,1.575 422.064,1.575 C 422.687,1.575 423.219,1.814 423.66,2.291 C 424.1,2.77 424.38,3.512 424.499,4.52 Z" marker-start="none" marker-end="none"/>
    <path d="M 427.5,14.189 L 427.5,16.489 L 429.133,16.489 L 429.133,14.189 L 427.5,14.189 M 427.5,0.197 L 427.5,12 L 429.133,12 L 429.133,0.197 L 427.5,0.197 Z" marker-start="none" marker-end="none"/>
    <path d="M 437.946,1.653 C 437.398,1.083 436.827,0.653 436.234,0.364 C 435.642,0.075 435.027,-0.07 434.39,-0.07 C 433.382,-0.07 432.578,0.234 431.978,0.841 C 431.378,1.449 431.078,2.268 431.078,3.298 C 431.078,3.979 431.219,4.583 431.5,5.11 C 431.781,5.635 432.167,6.046 432.656,6.342 C 433.145,6.64 433.886,6.858 434.879,6.998 C 436.212,7.194 437.19,7.428 437.812,7.699 L 437.824,8.21 C 437.824,9.017 437.679,9.584 437.39,9.91 C 436.983,10.384 436.357,10.621 435.512,10.621 C 434.749,10.621 434.178,10.463 433.8,10.147 C 433.423,9.83 433.145,9.236 432.967,8.365 L 431.355,8.632 C 431.585,9.899 432.05,10.821 432.75,11.399 C 433.451,11.977 434.452,12.266 435.756,12.266 C 436.771,12.266 437.568,12.075 438.146,11.694 C 438.723,11.312 439.088,10.839 439.24,10.277 C 439.392,9.714 439.468,8.891 439.468,7.81 L 439.468,5.142 C 439.468,3.275 439.504,2.099 439.574,1.614 C 439.644,1.128 439.783,0.657 439.991,0.197 L 438.279,0.197 C 438.109,0.605 437.998,1.09 437.946,1.653 M 437.812,6.12 C 437.212,5.824 436.319,5.573 435.134,5.365 C 434.445,5.246 433.964,5.111 433.689,4.959 C 433.415,4.808 433.203,4.593 433.051,4.314 C 432.898,4.037 432.822,3.716 432.822,3.353 C 432.822,2.79 432.997,2.34 433.345,2.003 C 433.693,1.666 434.174,1.498 434.789,1.498 C 435.375,1.498 435.906,1.649 436.384,1.953 C 436.863,2.257 437.22,2.662 437.457,3.17 C 437.694,3.677 437.812,4.416 437.812,5.387 L 437.812,6.12 Z" marker-start="none" marker-end="none"/>
    <path d="M 445.669,1.986 L 445.892,0.219 C 445.439,0.101 445.032,0.042 444.67,0.042 C 444.099,0.042 443.639,0.155 443.291,0.381 C 442.943,0.606 442.704,0.916 442.574,1.308 C 442.445,1.701 442.38,2.483 442.38,3.653 L 442.38,10.444 L 441.18,10.444 L 441.18,12 L 442.38,12 L 442.38,14.922 L 444.014,16.123 L 444.014,12 L 445.669,12 L 445.669,10.444 L 444.014,10.444 L 444.014,3.542 C 444.014,2.905 444.062,2.494 444.158,2.309 C 444.298,2.042 444.562,1.909 444.947,1.909 C 445.133,1.909 445.373,1.935 445.669,1.986 Z" marker-start="none" marker-end="none"/>
    <path d="M 447.215,14.189 L 447.215,16.489 L 448.848,16.489 L 448.848,14.189 L 447.215,14.189 M 447.215,0.197 L 447.215,12 L 448.848,12 L 448.848,0.197 L 447.215,0.197 Z" marker-start="none" marker-end="none"/>
    <path d="M 450.737,6.098 C 450.737,8.136 451.165,9.673 452.021,10.711 C 452.877,11.748 453.96,12.266 455.272,12.266 C 456.56,12.266 457.639,11.748 458.506,10.711 C 459.373,9.673 459.806,8.176 459.806,6.22 C 459.806,4.101 459.379,2.523 458.528,1.486 C 457.675,0.449 456.59,-0.07 455.272,-0.07 C 453.975,-0.07 452.895,0.451 452.032,1.492 C 451.169,2.532 450.737,4.069 450.737,6.098 M 452.415,6.104 C 452.415,4.576 452.693,3.438 453.248,2.694 C 453.805,1.948 454.494,1.575 455.316,1.575 C 456.087,1.575 456.748,1.952 457.3,2.704 C 457.852,3.458 458.128,4.59 458.128,6.104 C 458.128,7.624 457.85,8.757 457.294,9.503 C 456.738,10.249 456.049,10.621 455.227,10.621 C 454.449,10.621 453.786,10.247 453.238,9.497 C 452.689,8.748 452.415,7.617 452.415,6.104 Z" marker-start="none" marker-end="none"/>
    <path d="M 461.74,0.197 L 461.74,12 L 463.218,12 L 463.218,10.332 C 463.573,10.981 464.007,11.465 464.521,11.785 C 465.035,12.106 465.625,12.266 466.291,12.266 C 466.808,12.266 467.288,12.164 467.727,11.96 C 468.167,11.756 468.522,11.49 468.792,11.161 C 469.062,10.831 469.264,10.403 469.397,9.877 C 469.53,9.351 469.597,8.544 469.597,7.455 L 469.597,0.197 L 467.963,0.197 L 467.963,7.383 C 467.963,8.252 467.889,8.886 467.741,9.286 C 467.593,9.687 467.361,9.997 467.046,10.215 C 466.731,10.434 466.367,10.544 465.952,10.544 C 465.166,10.544 464.541,10.251 464.073,9.665 C 463.606,9.079 463.373,8.073 463.373,6.65 L 463.373,0.197 L 461.74,0.197 Z" marker-start="none" marker-end="none"/>
   </g>
   <mask id="TranspMask_3">
    <rect x="-10%" y="-10%" width="120%" height="120%" fill="#ffffff" stroke="none"/>
   </mask>
   <g id="Group_4" fill="#660066" mask="url(#TranspMask_3)">
    <path d="M 184.593,-0.027 L 183.631,-0.027 L 183.631,144.08 L 184.593,144.08 L 184.593,-0.027 Z" marker-start="none" marker-end="none"/>
   </g>
  </g>
 </g>
</svg>
